<mxfile host="app.diagrams.net" modified="2023-07-27T14:06:30.202Z" agent="Mozilla/5.0 (Macintosh; Intel Mac OS X 10_15_7) AppleWebKit/605.1.15 (KHTML, like Gecko) Version/15.0 Safari/605.1.15" etag="d-ou7U-YiiwwUFBkOSZp" version="21.6.5" type="github">
  <diagram name="Page-1" id="TgRvwB3KdWyyqpBhAY-B">
    <mxGraphModel dx="3770" dy="2862" grid="1" gridSize="10" guides="1" tooltips="1" connect="1" arrows="1" fold="1" page="1" pageScale="1" pageWidth="827" pageHeight="1169" math="0" shadow="0">
      <root>
        <mxCell id="0" />
        <mxCell id="1" parent="0" />
        <mxCell id="I5ZTyvFmp4hFvdo5sTdv-35" style="edgeStyle=orthogonalEdgeStyle;rounded=0;orthogonalLoop=1;jettySize=auto;html=1;entryX=0;entryY=0.5;entryDx=0;entryDy=0;" edge="1" parent="1" source="I5ZTyvFmp4hFvdo5sTdv-1" target="I5ZTyvFmp4hFvdo5sTdv-23">
          <mxGeometry relative="1" as="geometry" />
        </mxCell>
        <mxCell id="I5ZTyvFmp4hFvdo5sTdv-36" style="edgeStyle=orthogonalEdgeStyle;rounded=0;orthogonalLoop=1;jettySize=auto;html=1;entryX=0;entryY=0.5;entryDx=0;entryDy=0;" edge="1" parent="1" source="I5ZTyvFmp4hFvdo5sTdv-1" target="I5ZTyvFmp4hFvdo5sTdv-24">
          <mxGeometry relative="1" as="geometry" />
        </mxCell>
        <mxCell id="I5ZTyvFmp4hFvdo5sTdv-37" style="edgeStyle=orthogonalEdgeStyle;rounded=0;orthogonalLoop=1;jettySize=auto;html=1;entryX=0;entryY=0.5;entryDx=0;entryDy=0;" edge="1" parent="1" source="I5ZTyvFmp4hFvdo5sTdv-1" target="I5ZTyvFmp4hFvdo5sTdv-25">
          <mxGeometry relative="1" as="geometry" />
        </mxCell>
        <mxCell id="I5ZTyvFmp4hFvdo5sTdv-38" style="edgeStyle=orthogonalEdgeStyle;rounded=0;orthogonalLoop=1;jettySize=auto;html=1;entryX=0;entryY=0.5;entryDx=0;entryDy=0;" edge="1" parent="1" source="I5ZTyvFmp4hFvdo5sTdv-1" target="I5ZTyvFmp4hFvdo5sTdv-26">
          <mxGeometry relative="1" as="geometry" />
        </mxCell>
        <mxCell id="I5ZTyvFmp4hFvdo5sTdv-1" value="aws-euwest2-swell-staging" style="image;sketch=0;aspect=fixed;html=1;points=[];align=center;fontSize=12;image=img/lib/mscae/Kubernetes.svg;" vertex="1" parent="1">
          <mxGeometry x="200" y="129" width="72.92" height="70" as="geometry" />
        </mxCell>
        <mxCell id="I5ZTyvFmp4hFvdo5sTdv-39" style="edgeStyle=orthogonalEdgeStyle;rounded=0;orthogonalLoop=1;jettySize=auto;html=1;entryX=0;entryY=0.75;entryDx=0;entryDy=0;" edge="1" parent="1" source="I5ZTyvFmp4hFvdo5sTdv-3" target="I5ZTyvFmp4hFvdo5sTdv-23">
          <mxGeometry relative="1" as="geometry" />
        </mxCell>
        <mxCell id="I5ZTyvFmp4hFvdo5sTdv-40" style="edgeStyle=orthogonalEdgeStyle;rounded=0;orthogonalLoop=1;jettySize=auto;html=1;entryX=0;entryY=0.25;entryDx=0;entryDy=0;" edge="1" parent="1" source="I5ZTyvFmp4hFvdo5sTdv-3" target="I5ZTyvFmp4hFvdo5sTdv-24">
          <mxGeometry relative="1" as="geometry" />
        </mxCell>
        <mxCell id="I5ZTyvFmp4hFvdo5sTdv-41" style="edgeStyle=orthogonalEdgeStyle;rounded=0;orthogonalLoop=1;jettySize=auto;html=1;entryX=0;entryY=0.75;entryDx=0;entryDy=0;" edge="1" parent="1" source="I5ZTyvFmp4hFvdo5sTdv-3" target="I5ZTyvFmp4hFvdo5sTdv-25">
          <mxGeometry relative="1" as="geometry" />
        </mxCell>
        <mxCell id="I5ZTyvFmp4hFvdo5sTdv-43" style="edgeStyle=orthogonalEdgeStyle;rounded=0;orthogonalLoop=1;jettySize=auto;html=1;entryX=0;entryY=0.25;entryDx=0;entryDy=0;" edge="1" parent="1" source="I5ZTyvFmp4hFvdo5sTdv-3" target="I5ZTyvFmp4hFvdo5sTdv-26">
          <mxGeometry relative="1" as="geometry" />
        </mxCell>
        <mxCell id="I5ZTyvFmp4hFvdo5sTdv-3" value="aws-uswest1-swell-staging" style="image;sketch=0;aspect=fixed;html=1;points=[];align=center;fontSize=12;image=img/lib/mscae/Kubernetes.svg;" vertex="1" parent="1">
          <mxGeometry x="100" y="349" width="72.92" height="70" as="geometry" />
        </mxCell>
        <mxCell id="I5ZTyvFmp4hFvdo5sTdv-5" style="edgeStyle=orthogonalEdgeStyle;rounded=0;orthogonalLoop=1;jettySize=auto;html=1;" edge="1" parent="1" source="I5ZTyvFmp4hFvdo5sTdv-4" target="I5ZTyvFmp4hFvdo5sTdv-1">
          <mxGeometry relative="1" as="geometry" />
        </mxCell>
        <mxCell id="I5ZTyvFmp4hFvdo5sTdv-4" value="af05523d8ba664259af3caa0179018ff-5c675b070763a5f2.elb.eu-west-2.amazonaws.com" style="outlineConnect=0;dashed=0;verticalLabelPosition=bottom;verticalAlign=top;align=center;html=1;shape=mxgraph.aws3.classic_load_balancer;fillColor=#F58534;gradientColor=none;" vertex="1" parent="1">
          <mxGeometry x="-120" y="128" width="69" height="72" as="geometry" />
        </mxCell>
        <mxCell id="I5ZTyvFmp4hFvdo5sTdv-7" style="edgeStyle=orthogonalEdgeStyle;rounded=0;orthogonalLoop=1;jettySize=auto;html=1;entryX=0;entryY=0.514;entryDx=0;entryDy=0;entryPerimeter=0;" edge="1" parent="1" source="I5ZTyvFmp4hFvdo5sTdv-6" target="I5ZTyvFmp4hFvdo5sTdv-3">
          <mxGeometry relative="1" as="geometry" />
        </mxCell>
        <mxCell id="I5ZTyvFmp4hFvdo5sTdv-6" value="LB" style="outlineConnect=0;dashed=0;verticalLabelPosition=bottom;verticalAlign=top;align=center;html=1;shape=mxgraph.aws3.classic_load_balancer;fillColor=#F58534;gradientColor=none;" vertex="1" parent="1">
          <mxGeometry x="-120" y="350" width="69" height="72" as="geometry" />
        </mxCell>
        <mxCell id="I5ZTyvFmp4hFvdo5sTdv-10" style="edgeStyle=orthogonalEdgeStyle;rounded=0;orthogonalLoop=1;jettySize=auto;html=1;entryX=0;entryY=0.5;entryDx=0;entryDy=0;entryPerimeter=0;" edge="1" parent="1" source="I5ZTyvFmp4hFvdo5sTdv-9" target="I5ZTyvFmp4hFvdo5sTdv-4">
          <mxGeometry relative="1" as="geometry" />
        </mxCell>
        <mxCell id="I5ZTyvFmp4hFvdo5sTdv-9" value="api-staging-eu.swell.store" style="sketch=0;pointerEvents=1;shadow=0;dashed=0;html=1;strokeColor=none;fillColor=#505050;labelPosition=center;verticalLabelPosition=bottom;verticalAlign=top;outlineConnect=0;align=center;shape=mxgraph.office.concepts.web_page;" vertex="1" parent="1">
          <mxGeometry x="-500" y="60" width="50" height="54" as="geometry" />
        </mxCell>
        <mxCell id="I5ZTyvFmp4hFvdo5sTdv-12" style="edgeStyle=orthogonalEdgeStyle;rounded=0;orthogonalLoop=1;jettySize=auto;html=1;entryX=0;entryY=0.5;entryDx=0;entryDy=0;entryPerimeter=0;" edge="1" parent="1" source="I5ZTyvFmp4hFvdo5sTdv-11" target="I5ZTyvFmp4hFvdo5sTdv-4">
          <mxGeometry relative="1" as="geometry" />
        </mxCell>
        <mxCell id="I5ZTyvFmp4hFvdo5sTdv-11" value="staging-eu.swell.store" style="sketch=0;pointerEvents=1;shadow=0;dashed=0;html=1;strokeColor=none;fillColor=#505050;labelPosition=center;verticalLabelPosition=bottom;verticalAlign=top;outlineConnect=0;align=center;shape=mxgraph.office.concepts.web_page;" vertex="1" parent="1">
          <mxGeometry x="-500" y="190" width="50" height="54" as="geometry" />
        </mxCell>
        <mxCell id="I5ZTyvFmp4hFvdo5sTdv-14" style="edgeStyle=orthogonalEdgeStyle;rounded=0;orthogonalLoop=1;jettySize=auto;html=1;entryX=0;entryY=0.5;entryDx=0;entryDy=0;entryPerimeter=0;" edge="1" parent="1" source="I5ZTyvFmp4hFvdo5sTdv-13" target="I5ZTyvFmp4hFvdo5sTdv-6">
          <mxGeometry relative="1" as="geometry" />
        </mxCell>
        <mxCell id="I5ZTyvFmp4hFvdo5sTdv-13" value="api-staging.swell.store" style="sketch=0;pointerEvents=1;shadow=0;dashed=0;html=1;strokeColor=none;fillColor=#505050;labelPosition=center;verticalLabelPosition=bottom;verticalAlign=top;outlineConnect=0;align=center;shape=mxgraph.office.concepts.web_page;" vertex="1" parent="1">
          <mxGeometry x="-500" y="340" width="50" height="54" as="geometry" />
        </mxCell>
        <mxCell id="I5ZTyvFmp4hFvdo5sTdv-16" style="edgeStyle=orthogonalEdgeStyle;rounded=0;orthogonalLoop=1;jettySize=auto;html=1;entryX=0;entryY=0.5;entryDx=0;entryDy=0;entryPerimeter=0;" edge="1" parent="1" source="I5ZTyvFmp4hFvdo5sTdv-15" target="I5ZTyvFmp4hFvdo5sTdv-6">
          <mxGeometry relative="1" as="geometry" />
        </mxCell>
        <mxCell id="I5ZTyvFmp4hFvdo5sTdv-15" value="staging.swell.store" style="sketch=0;pointerEvents=1;shadow=0;dashed=0;html=1;strokeColor=none;fillColor=#505050;labelPosition=center;verticalLabelPosition=bottom;verticalAlign=top;outlineConnect=0;align=center;shape=mxgraph.office.concepts.web_page;" vertex="1" parent="1">
          <mxGeometry x="-500" y="470" width="50" height="54" as="geometry" />
        </mxCell>
        <mxCell id="I5ZTyvFmp4hFvdo5sTdv-23" value="Staging EU Data Cluster" style="whiteSpace=wrap;html=1;aspect=fixed;" vertex="1" parent="1">
          <mxGeometry x="430" y="-510" width="330" height="330" as="geometry" />
        </mxCell>
        <mxCell id="I5ZTyvFmp4hFvdo5sTdv-8" value="swell-aws-staging-eu-shard-00-00.yf4ey.mongodb.net:27017" style="image;aspect=fixed;perimeter=ellipsePerimeter;html=1;align=center;shadow=0;dashed=0;spacingTop=3;image=img/lib/active_directory/databases.svg;" vertex="1" parent="1">
          <mxGeometry x="570" y="-490" width="50" height="49" as="geometry" />
        </mxCell>
        <mxCell id="I5ZTyvFmp4hFvdo5sTdv-17" value="swell-aws-staging-eu-shard-00-01.yf4ey.mongodb.net:27017" style="image;aspect=fixed;perimeter=ellipsePerimeter;html=1;align=center;shadow=0;dashed=0;spacingTop=3;image=img/lib/active_directory/databases.svg;" vertex="1" parent="1">
          <mxGeometry x="570" y="-399" width="50" height="49" as="geometry" />
        </mxCell>
        <mxCell id="I5ZTyvFmp4hFvdo5sTdv-19" value="swell-aws-staging-eu-shard-00-02.yf4ey.mongodb.net:27017" style="image;aspect=fixed;perimeter=ellipsePerimeter;html=1;align=center;shadow=0;dashed=0;spacingTop=3;image=img/lib/active_directory/databases.svg;" vertex="1" parent="1">
          <mxGeometry x="570" y="-280" width="50" height="49" as="geometry" />
        </mxCell>
        <mxCell id="I5ZTyvFmp4hFvdo5sTdv-24" value="Staging EU main cluster" style="whiteSpace=wrap;html=1;aspect=fixed;" vertex="1" parent="1">
          <mxGeometry x="430" y="-100" width="330" height="330" as="geometry" />
        </mxCell>
        <mxCell id="I5ZTyvFmp4hFvdo5sTdv-20" value="staging-cluster-0-shard-01-00.yf4ey.mongodb.net:27016" style="image;aspect=fixed;perimeter=ellipsePerimeter;html=1;align=center;shadow=0;dashed=0;spacingTop=3;image=img/lib/active_directory/databases.svg;" vertex="1" parent="1">
          <mxGeometry x="570" y="-86" width="50" height="49" as="geometry" />
        </mxCell>
        <mxCell id="I5ZTyvFmp4hFvdo5sTdv-21" value="staging-cluster-0-shard-01-01.yf4ey.mongodb.net:27016" style="image;aspect=fixed;perimeter=ellipsePerimeter;html=1;align=center;shadow=0;dashed=0;spacingTop=3;image=img/lib/active_directory/databases.svg;" vertex="1" parent="1">
          <mxGeometry x="570" y="20" width="50" height="49" as="geometry" />
        </mxCell>
        <mxCell id="I5ZTyvFmp4hFvdo5sTdv-22" value="staging-cluster-0-shard-01-02.yf4ey.mongodb.net:27016" style="image;aspect=fixed;perimeter=ellipsePerimeter;html=1;align=center;shadow=0;dashed=0;spacingTop=3;image=img/lib/active_directory/databases.svg;" vertex="1" parent="1">
          <mxGeometry x="570" y="150" width="50" height="49" as="geometry" />
        </mxCell>
        <mxCell id="I5ZTyvFmp4hFvdo5sTdv-25" value="Staging US main cluster (shard 00)" style="whiteSpace=wrap;html=1;aspect=fixed;" vertex="1" parent="1">
          <mxGeometry x="430" y="260" width="390" height="390" as="geometry" />
        </mxCell>
        <mxCell id="I5ZTyvFmp4hFvdo5sTdv-26" value="Staging EU main cluster (shard 01):" style="whiteSpace=wrap;html=1;aspect=fixed;" vertex="1" parent="1">
          <mxGeometry x="430" y="680" width="330" height="330" as="geometry" />
        </mxCell>
        <mxCell id="I5ZTyvFmp4hFvdo5sTdv-27" value="staging-cluster-0-shard-00-00.yf4ey.mongodb.net:27016" style="image;aspect=fixed;perimeter=ellipsePerimeter;html=1;align=center;shadow=0;dashed=0;spacingTop=3;image=img/lib/active_directory/databases.svg;" vertex="1" parent="1">
          <mxGeometry x="570" y="280" width="50" height="49" as="geometry" />
        </mxCell>
        <mxCell id="I5ZTyvFmp4hFvdo5sTdv-28" value="staging-cluster-0-shard-00-01.yf4ey.mongodb.net:27016" style="image;aspect=fixed;perimeter=ellipsePerimeter;html=1;align=center;shadow=0;dashed=0;spacingTop=3;image=img/lib/active_directory/databases.svg;" vertex="1" parent="1">
          <mxGeometry x="570" y="370" width="50" height="49" as="geometry" />
        </mxCell>
        <mxCell id="I5ZTyvFmp4hFvdo5sTdv-29" value="staging-cluster-0-shard-00-02.yf4ey.mongodb.net:27016" style="image;aspect=fixed;perimeter=ellipsePerimeter;html=1;align=center;shadow=0;dashed=0;spacingTop=3;image=img/lib/active_directory/databases.svg;" vertex="1" parent="1">
          <mxGeometry x="570" y="460" width="50" height="49" as="geometry" />
        </mxCell>
        <mxCell id="I5ZTyvFmp4hFvdo5sTdv-30" value="staging-cluster-0-shard-00-03.yf4ey.mongodb.net:27016" style="image;aspect=fixed;perimeter=ellipsePerimeter;html=1;align=center;shadow=0;dashed=0;spacingTop=3;image=img/lib/active_directory/databases.svg;" vertex="1" parent="1">
          <mxGeometry x="570" y="560" width="50" height="49" as="geometry" />
        </mxCell>
        <mxCell id="I5ZTyvFmp4hFvdo5sTdv-32" value="staging-cluster-0-shard-01-00.yf4ey.mongodb.net:27016" style="image;aspect=fixed;perimeter=ellipsePerimeter;html=1;align=center;shadow=0;dashed=0;spacingTop=3;image=img/lib/active_directory/databases.svg;" vertex="1" parent="1">
          <mxGeometry x="560" y="700" width="50" height="49" as="geometry" />
        </mxCell>
        <mxCell id="I5ZTyvFmp4hFvdo5sTdv-33" value="staging-cluster-0-shard-01-01.yf4ey.mongodb.net:27016" style="image;aspect=fixed;perimeter=ellipsePerimeter;html=1;align=center;shadow=0;dashed=0;spacingTop=3;image=img/lib/active_directory/databases.svg;" vertex="1" parent="1">
          <mxGeometry x="560" y="780" width="50" height="49" as="geometry" />
        </mxCell>
        <mxCell id="I5ZTyvFmp4hFvdo5sTdv-34" value="staging-cluster-0-shard-01-02.yf4ey.mongodb.net:27016" style="image;aspect=fixed;perimeter=ellipsePerimeter;html=1;align=center;shadow=0;dashed=0;spacingTop=3;image=img/lib/active_directory/databases.svg;" vertex="1" parent="1">
          <mxGeometry x="560" y="890" width="50" height="49" as="geometry" />
        </mxCell>
      </root>
    </mxGraphModel>
  </diagram>
</mxfile>
